<svg width="76" height="76" viewBox="0 0 76 76" fill="none" xmlns="http://www.w3.org/2000/svg">
<path d="M66.5 36.4167C66.5109 40.5963 65.5344 44.7193 63.65 48.45C61.4157 52.9206 57.9809 56.6807 53.7303 59.3094C49.4796 61.9381 44.5811 63.3314 39.5833 63.3334C35.4038 63.3443 31.2807 62.3678 27.55 60.4834L9.5 66.5L15.5167 48.45C13.6323 44.7193 12.6558 40.5963 12.6667 36.4167C12.6686 31.4189 14.0619 26.5204 16.6906 22.2698C19.3193 18.0192 23.0795 14.5843 27.55 12.35C31.2807 10.4656 35.4038 9.48913 39.5833 9.50003H41.1667C47.7671 9.86417 54.0013 12.6501 58.6756 17.3244C63.3499 21.9987 66.1359 28.2329 66.5 34.8334V36.4167Z" stroke="#1E1E1E" stroke-width="4" stroke-linecap="round" stroke-linejoin="round"/>
</svg>
