<svg width="76" height="76" viewBox="0 0 76 76" fill="none" xmlns="http://www.w3.org/2000/svg">
<path d="M38.0001 47.5C43.2468 47.5 47.5001 43.2467 47.5001 38C47.5001 32.7533 43.2468 28.5 38.0001 28.5C32.7534 28.5 28.5001 32.7533 28.5001 38C28.5001 43.2467 32.7534 47.5 38.0001 47.5Z" stroke="#1E1E1E" stroke-width="4" stroke-linecap="round" stroke-linejoin="round"/>
<path d="M61.4334 47.5C61.0119 48.4551 60.8861 49.5146 61.0724 50.5419C61.2587 51.5691 61.7484 52.517 62.4784 53.2634L62.6684 53.4534C63.2573 54.0416 63.7244 54.74 64.0431 55.5089C64.3619 56.2778 64.5259 57.1019 64.5259 57.9342C64.5259 58.7665 64.3619 59.5906 64.0431 60.3595C63.7244 61.1283 63.2573 61.8268 62.6684 62.415C62.0802 63.0039 61.3817 63.471 60.6129 63.7897C59.844 64.1085 59.0199 64.2725 58.1876 64.2725C57.3553 64.2725 56.5312 64.1085 55.7623 63.7897C54.9934 63.471 54.2949 63.0039 53.7068 62.415L53.5168 62.225C52.7704 61.495 51.8225 61.0053 50.7953 60.819C49.768 60.6328 48.7085 60.7585 47.7534 61.18C46.8168 61.5814 46.018 62.248 45.4554 63.0976C44.8928 63.9471 44.5908 64.9427 44.5868 65.9617V66.5C44.5868 68.1797 43.9195 69.7906 42.7318 70.9784C41.544 72.1661 39.9331 72.8334 38.2534 72.8334C36.5737 72.8334 34.9628 72.1661 33.7751 70.9784C32.5873 69.7906 31.9201 68.1797 31.9201 66.5V66.215C31.8956 65.1669 31.5563 64.1503 30.9464 63.2976C30.3364 62.4448 29.4841 61.7953 28.5001 61.4334C27.545 61.0118 26.4855 60.8861 25.4582 61.0723C24.431 61.2586 23.4831 61.7483 22.7367 62.4784L22.5467 62.6684C21.9586 63.2572 21.2601 63.7244 20.4912 64.0431C19.7224 64.3618 18.8982 64.5258 18.0659 64.5258C17.2336 64.5258 16.4095 64.3618 15.6406 64.0431C14.8718 63.7244 14.1733 63.2572 13.5851 62.6684C12.9962 62.0802 12.5291 61.3817 12.2104 60.6128C11.8916 59.844 11.7276 59.0198 11.7276 58.1875C11.7276 57.3552 11.8916 56.5311 12.2104 55.7622C12.5291 54.9934 12.9962 54.2949 13.5851 53.7067L13.7751 53.5167C14.5051 52.7704 14.9948 51.8225 15.1811 50.7952C15.3674 49.768 15.2416 48.7085 14.8201 47.7534C14.4187 46.8168 13.7521 46.018 12.9026 45.4553C12.053 44.8927 11.0574 44.5908 10.0384 44.5867H9.50008C7.82038 44.5867 6.20947 43.9194 5.02174 42.7317C3.83401 41.544 3.16675 39.9331 3.16675 38.2534C3.16675 36.5737 3.83401 34.9627 5.02174 33.775C6.20947 32.5873 7.82038 31.92 9.50008 31.92H9.78508C10.8332 31.8955 11.8498 31.5562 12.7025 30.9463C13.5553 30.3364 14.2048 29.484 14.5667 28.5C14.9883 27.5449 15.114 26.4854 14.9278 25.4582C14.7415 24.4309 14.2518 23.483 13.5217 22.7367L13.3317 22.5467C12.7429 21.9585 12.2758 21.26 11.957 20.4911C11.6383 19.7223 11.4743 18.8982 11.4743 18.0659C11.4743 17.2336 11.6383 16.4094 11.957 15.6406C12.2758 14.8717 12.7429 14.1732 13.3317 13.585C13.9199 12.9962 14.6184 12.529 15.3873 12.2103C16.1561 11.8916 16.9803 11.7275 17.8126 11.7275C18.6449 11.7275 19.469 11.8916 20.2379 12.2103C21.0067 12.529 21.7052 12.9962 22.2934 13.585L22.4834 13.775C23.2297 14.5051 24.1776 14.9948 25.2049 15.181C26.2321 15.3673 27.2916 15.2416 28.2468 14.82H28.5001C29.4367 14.4186 30.2355 13.7521 30.7981 12.9025C31.3608 12.0529 31.6627 11.0573 31.6668 10.0384V9.50002C31.6668 7.82032 32.334 6.20941 33.5217 5.02168C34.7095 3.83395 36.3204 3.16669 38.0001 3.16669C39.6798 3.16669 41.2907 3.83395 42.4784 5.02168C43.6662 6.20941 44.3334 7.82032 44.3334 9.50002V9.78502C44.3375 10.804 44.6394 11.7996 45.2021 12.6492C45.7647 13.4987 46.5635 14.1653 47.5001 14.5667C48.4552 14.9882 49.5147 15.114 50.5419 14.9277C51.5692 14.7414 52.5171 14.2517 53.2634 13.5217L53.4534 13.3317C54.0416 12.7428 54.7401 12.2757 55.509 11.957C56.2778 11.6383 57.102 11.4742 57.9343 11.4742C58.7666 11.4742 59.5907 11.6383 60.3595 11.957C61.1284 12.2757 61.8269 12.7428 62.4151 13.3317C63.0039 13.9199 63.4711 14.6184 63.7898 15.3872C64.1085 16.1561 64.2726 16.9802 64.2726 17.8125C64.2726 18.6448 64.1085 19.469 63.7898 20.2378C63.4711 21.0067 63.0039 21.7052 62.4151 22.2934L62.2251 22.4834C61.4951 23.2297 61.0053 24.1776 60.8191 25.2048C60.6328 26.2321 60.7586 27.2916 61.1801 28.2467V28.5C61.5815 29.4366 62.248 30.2354 63.0976 30.7981C63.9472 31.3607 64.9428 31.6626 65.9618 31.6667H66.5001C68.1798 31.6667 69.7907 32.334 70.9784 33.5217C72.1662 34.7094 72.8334 36.3203 72.8334 38C72.8334 39.6797 72.1662 41.2906 70.9784 42.4784C69.7907 43.6661 68.1798 44.3334 66.5001 44.3334H66.2151C65.1961 44.3374 64.2005 44.6394 63.3509 45.202C62.5014 45.7646 61.8348 46.5634 61.4334 47.5Z" stroke="#1E1E1E" stroke-width="4" stroke-linecap="round" stroke-linejoin="round"/>
</svg>
