<svg width="103" height="102" viewBox="0 0 103 102" fill="none" xmlns="http://www.w3.org/2000/svg">
<path d="M78.0469 25.5414C93.5676 41.6936 90.9439 69.3989 72.1866 87.4231C53.4293 105.447 25.6414 106.965 10.1206 90.8127C-5.40024 74.6605 -2.77652 46.9552 15.9808 28.931C34.7381 10.9069 62.5261 9.3893 78.0469 25.5414Z" fill="#FFE550"/>
<path d="M54.6122 74.5944C55.1128 74.7765 55.6589 74.8675 56.2505 74.8675C56.8876 74.8675 57.4792 74.7992 58.0254 74.6627C58.617 74.5262 59.1403 74.2076 59.5954 73.707C60.096 73.1609 60.4828 72.7286 60.7559 72.41C61.0289 72.0914 61.3703 71.386 61.7798 70.2938C62.2804 69.0196 62.8948 67.222 63.623 64.901C65.5343 66.6759 66.6721 68.0184 67.0361 68.9286C64.8517 76.9381 61.0062 80.9429 55.4996 80.9429C52.9056 80.9429 49.6062 79.2591 45.6014 75.8914C43.508 79.2591 40.2541 80.9429 35.8397 80.9429C33.8828 80.9429 32.108 80.2831 30.5152 78.9633C28.9679 77.6435 28.1942 75.7549 28.1942 73.2974C28.1942 70.8399 29.0134 68.8375 30.6517 67.2902C32.29 65.6974 34.4062 64.901 37.0002 64.901C37.5008 64.901 38.2062 64.9465 39.1164 65.0375L40.0721 56.3681C38.0697 57.0052 34.9751 57.8244 30.7882 58.8256V53.7058C34.2014 52.9322 37.4781 52.0675 40.6182 51.1118L41.9834 39.9848C42.9391 32.3848 46.8074 28.5848 53.5882 28.5848C56.2733 28.5848 58.4122 29.3357 60.005 30.8375C61.6433 32.2938 62.4625 34.3645 62.4625 37.0495C62.4625 43.5118 58.2984 48.7226 49.9703 52.6819L47.9224 68.792L47.8541 69.4747C51.2218 72.4783 53.4745 74.1848 54.6122 74.5944ZM57.3427 37.5956C57.3427 35.6843 56.5463 34.7286 54.9535 34.7286C53.0421 34.7286 51.8361 36.9813 51.3355 41.4866L50.6529 46.8795C55.1128 44.2399 57.3427 41.1453 57.3427 37.5956ZM33.3822 72.8196C33.3822 74.1849 34.1559 74.8675 35.7032 74.8675C37.205 74.8675 38.1379 73.525 38.502 70.8399C37.6373 70.4759 36.8182 70.2938 36.0445 70.2938C35.3164 70.2938 34.6793 70.5441 34.1331 71.0447C33.6325 71.5453 33.3822 72.1369 33.3822 72.8196Z" fill="white"/>
<path d="M101.613 16.0204C102.581 18.0369 103.028 20.2793 102.927 22.6196C102.827 24.9599 102.181 27.3522 101.028 29.66C99.8745 31.9678 98.2357 34.1458 96.2051 36.0698C94.1744 37.9937 91.7916 39.6259 89.1927 40.8731C86.5939 42.1203 83.8299 42.9581 81.0585 43.3387C78.2872 43.7193 75.5627 43.6352 73.0408 43.0913C70.5188 42.5473 68.2487 41.5541 66.3601 40.1684C64.4715 38.7827 63.0014 37.0316 62.0337 35.0151L101.613 16.0204Z" fill="#1C8536"/>
<path d="M64.3188 35.6086C62.1181 34.8114 60.101 33.5748 58.3826 31.9695C56.6642 30.3641 55.2781 28.4215 54.3036 26.2525C53.329 24.0836 52.7851 21.7307 52.7028 19.3283C52.6204 16.9258 53.0014 14.5209 53.8238 12.2508C54.6463 9.98063 55.8941 7.88976 57.4961 6.09754C59.0981 4.30531 61.0228 2.84683 63.1605 1.80536C65.2981 0.763884 67.6068 0.159823 69.9547 0.0276618C72.3026 -0.1045 74.6437 0.237826 76.8443 1.03509L64.3188 35.6086Z" fill="#1C8536"/>
</svg>
