<svg width="82" height="82" viewBox="0 0 82 82" fill="none" xmlns="http://www.w3.org/2000/svg">
<path d="M37.583 13.6668H13.6663C11.854 13.6668 10.1159 14.3867 8.83444 15.6682C7.55295 16.9497 6.83301 18.6878 6.83301 20.5001V68.3335C6.83301 70.1458 7.55295 71.8839 8.83444 73.1653C10.1159 74.4468 11.854 75.1668 13.6663 75.1668H61.4997C63.312 75.1668 65.0501 74.4468 66.3316 73.1653C67.6131 71.8839 68.333 70.1458 68.333 68.3335V44.4168M63.208 8.54179C64.5672 7.18256 66.4108 6.41895 68.333 6.41895C70.2553 6.41895 72.0988 7.18256 73.458 8.54179C74.8172 9.90102 75.5809 11.7445 75.5809 13.6668C75.5809 15.589 74.8172 17.4326 73.458 18.7918L40.9997 51.2501L27.333 54.6668L30.7497 41.0001L63.208 8.54179Z" stroke="#1E1E1E" stroke-width="4" stroke-linecap="round" stroke-linejoin="round"/>
</svg>
