<?xml version="1.0" encoding="utf-8"?>
<!-- Svg Vector Icons : http://www.onlinewebfonts.com/icon -->
<!DOCTYPE svg PUBLIC "-//W3C//DTD SVG 1.1//EN" "http://www.w3.org/Graphics/SVG/1.1/DTD/svg11.dtd">
<svg version="1.1" xmlns="http://www.w3.org/2000/svg" xmlns:xlink="http://www.w3.org/1999/xlink" x="0px" y="0px" viewBox="0 0 256 256" enable-background="new 0 0 256 256" xml:space="preserve">
<metadata> Svg Vector Icons : http://www.onlinewebfonts.com/icon </metadata>
<g><g><path fill="#000000" d="M128,92.1c36,0,69.3,17.1,90.2,46.2c-20.9,29-54.2,46.2-90.2,46.2c-36,0-69.3-17.1-90.2-46.2C58.7,109.2,92,92.1,128,92.1 M128,81.8c-43.2,0-81,22.5-102.6,56.4C47,172.2,84.8,194.7,128,194.7s81-22.5,102.6-56.4C209,104.3,171.2,81.8,128,81.8L128,81.8z"/><path fill="#000000" d="M128,102.3c19.8,0,35.9,16.1,35.9,35.9c0,19.8-16.1,35.9-35.9,35.9c-19.8,0-35.9-16.1-35.9-35.9C92.1,118.5,108.2,102.3,128,102.3 M128,92.1c-25.5,0-46.2,20.7-46.2,46.2c0,25.5,20.7,46.2,46.2,46.2s46.2-20.7,46.2-46.2C174.2,112.7,153.5,92.1,128,92.1L128,92.1z"/><path fill="#000000" d="M119.7,102.3c9.6,0,17.3,7.8,17.3,17.3c0,9.6-7.8,17.3-17.3,17.3c-9.6,0-17.3-7.8-17.3-17.3C102.4,110.1,110.1,102.3,119.7,102.3z"/><path fill="#000000" d="M128,86.9c-2.8,0-5.1-2.3-5.1-5.1V66.4c0-2.8,2.3-5.1,5.1-5.1s5.1,2.3,5.1,5.1v15.4C133.1,84.6,130.8,86.9,128,86.9z"/><path fill="#000000" d="M158.8,91.5c-0.4,0-0.9,0-1.3-0.2c-2.7-0.7-4.4-3.5-3.6-6.3l4-14.9c0.7-2.7,3.5-4.4,6.3-3.6c2.7,0.7,4.4,3.5,3.6,6.3l-4,14.9C163.1,90,161,91.5,158.8,91.5z"/><path fill="#000000" d="M184.4,100.3c-0.9,0-1.8-0.2-2.6-0.7c-2.5-1.4-3.3-4.6-1.9-7l7.7-13.3c1.4-2.5,4.6-3.3,7-1.9c2.5,1.4,3.3,4.6,1.9,7l-7.7,13.3C187.9,99.4,186.2,100.3,184.4,100.3z"/><path fill="#000000" d="M210.1,118.4c-1.3,0-2.6-0.5-3.6-1.5c-2-2-2-5.3,0-7.2l10.9-10.9c2-2,5.3-2,7.2,0s2,5.3,0,7.2l-10.9,10.9C212.7,117.8,211.4,118.4,210.1,118.4z"/><path fill="#000000" d="M227.6,140.8c-1.8,0-3.5-0.9-4.5-2.6c-1.4-2.5-0.6-5.6,1.9-7l13.3-7.7c2.5-1.4,5.6-0.6,7,1.9c1.4,2.5,0.6,5.6-1.9,7l-13.3,7.7C229.3,140.6,228.4,140.8,227.6,140.8z"/><path fill="#000000" d="M97.2,91.5c-2.3,0-4.3-1.5-5-3.8l-4-14.9c-0.7-2.7,0.9-5.6,3.6-6.3c2.7-0.7,5.6,0.9,6.3,3.6l4,14.9c0.7,2.7-0.9,5.6-3.6,6.3C98.1,91.5,97.7,91.5,97.2,91.5z"/><path fill="#000000" d="M71.6,100.3c-1.8,0-3.5-0.9-4.5-2.6l-7.7-13.3c-1.4-2.5-0.6-5.6,1.9-7c2.5-1.4,5.6-0.6,7,1.9L76,92.6c1.4,2.5,0.6,5.6-1.9,7C73.3,100.1,72.4,100.3,71.6,100.3z"/><path fill="#000000" d="M45.9,118.4c-1.3,0-2.6-0.5-3.6-1.5L31.4,106c-2-2-2-5.3,0-7.2s5.3-2,7.2,0l10.9,10.9c2,2,2,5.3,0,7.2C48.5,117.8,47.2,118.4,45.9,118.4z"/><path fill="#000000" d="M28.4,140.8c-0.9,0-1.8-0.2-2.6-0.7l-13.3-7.7c-2.5-1.4-3.3-4.6-1.9-7s4.6-3.3,7-1.9l13.3,7.7c2.5,1.4,3.3,4.6,1.9,7C32,139.9,30.2,140.8,28.4,140.8z"/></g></g>
</svg>