<svg width="141" height="141" viewBox="0 0 141 141" fill="none" xmlns="http://www.w3.org/2000/svg">
<path d="M70.5 70.5C64.0375 70.5 58.5052 68.199 53.9031 63.5969C49.301 58.9948 47 53.4625 47 47C47 40.5375 49.301 35.0052 53.9031 30.4031C58.5052 25.801 64.0375 23.5 70.5 23.5C76.9625 23.5 82.4948 25.801 87.0969 30.4031C91.699 35.0052 94 40.5375 94 47C94 53.4625 91.699 58.9948 87.0969 63.5969C82.4948 68.199 76.9625 70.5 70.5 70.5ZM23.5 117.5V101.05C23.5 97.7208 24.3568 94.6609 26.0703 91.8703C27.7839 89.0797 30.0604 86.95 32.9 85.4813C38.9708 82.4458 45.1396 80.1693 51.4062 78.6516C57.6729 77.1339 64.0375 76.375 70.5 76.375C76.9625 76.375 83.3271 77.1339 89.5938 78.6516C95.8604 80.1693 102.029 82.4458 108.1 85.4813C110.94 86.95 113.216 89.0797 114.93 91.8703C116.643 94.6609 117.5 97.7208 117.5 101.05V117.5H23.5ZM35.25 105.75H105.75V101.05C105.75 99.9729 105.481 98.9938 104.942 98.1125C104.404 97.2312 103.694 96.5458 102.812 96.0563C97.525 93.4125 92.1885 91.4297 86.8031 90.1078C81.4177 88.7859 75.9833 88.125 70.5 88.125C65.0167 88.125 59.5823 88.7859 54.1969 90.1078C48.8115 91.4297 43.475 93.4125 38.1875 96.0563C37.3062 96.5458 36.5964 97.2312 36.0578 98.1125C35.5193 98.9938 35.25 99.9729 35.25 101.05V105.75ZM70.5 58.75C73.7313 58.75 76.4974 57.5995 78.7984 55.2984C81.0995 52.9974 82.25 50.2313 82.25 47C82.25 43.7687 81.0995 41.0026 78.7984 38.7016C76.4974 36.4005 73.7313 35.25 70.5 35.25C67.2687 35.25 64.5026 36.4005 62.2016 38.7016C59.9005 41.0026 58.75 43.7687 58.75 47C58.75 50.2313 59.9005 52.9974 62.2016 55.2984C64.5026 57.5995 67.2687 58.75 70.5 58.75Z" fill="#1D1B20"/>
</svg>
